# File created by Blade
# Date/Time:  Tue Sep 30 19:10:05 2014
#---------------------------------------------------------
:version 1.10
:name HOM
:units
  mass 1.0
  length 1.000000
  angle deg
:documentation
     Acclaim Skeleton File
:root
   axis xyz
   order TX TY TZ RX RY RZ
   position 0.000000 0.000000 0.000000
   orientation 0 0 0
:bonedata
   begin
      id 1
      name Spine_dum
      direction 0.000000 1.000000 0.000000
      length 7.508948
      axis 0.0 0.0 0.0 xyz
   end
   begin
      id 2
      name LeftUpLeg_dum
      direction 1.000000 0.000000 0.000000
      length 3.000560
      axis 0.0 0.0 0.0 xyz
   end
   begin
      id 3
      name RightUpLeg_dum
      direction -1.000000 0.000000 0.000000
      length 3.000560
      axis 0.0 0.0 0.0 xyz
   end
   begin
      id 4
      name Spine
      direction 0.000000 1.000000 0.000000
      length 0.000000
      axis 0.0 0.0 0.0 xyz
      dof rx ry rz
   end
   begin
      id 5
      name Spine_dum1
      direction 0.000000 1.000000 0.000000
      length 13.861154
      axis 0.0 0.0 0.0 xyz
   end
   begin
      id 6
      name Spine_dum2
      direction 0.000000 1.000000 0.000000
      length 8.204781
      axis 0.0 0.0 0.0 xyz
   end
   begin
      id 7
      name Spine_dum3
      direction 0.000000 1.000000 0.000000
      length 8.204781
      axis 0.0 0.0 0.0 xyz
   end
   begin
      id 8
      name Head
      direction 0.000000 1.000000 0.000000
      length 4.527550
      axis 0.0 0.0 0.0 xyz
      dof rx ry rz
   end
   begin
      id 9
      name LeftShoulder
      direction 1.000000 0.000000 0.000000
      length 6.635956
      axis 0.0 0.0 -90.0 xyz
      dof rx ry rz
   end
   begin
      id 10
      name LeftArm
      direction 1.000000 0.000000 0.000000
      length 10.274218
      axis 0.0 0.0 -90.0 xyz
      dof rx ry rz
   end
   begin
      id 11
      name LeftForeArm
      direction 1.000000 0.000000 0.000000
      length 8.522147
      axis 0.0 0.0 -90.0 xyz
      dof ry rz rx
   end
   begin
      id 12
      name LeftHand
      direction 0.000000 0.000000 0.000000
      length 0.000000
      axis 0.0 0.0 -90.0 xyz
      dof rx ry rz
   end
   begin
      id 13
      name LeftHand_dum1
      direction 0.000000 0.000000 0.000000
      length 0.000000
      axis 0.0 0.0 -90.0 xyz
   end
   begin
      id 14
      name LeftHand_dum2
      direction 1.000000 0.000000 0.000000
      length 3.937000
      axis 0.0 0.0 -90.0 xyz
   end
   begin
      id 15
      name LeftHandThumb1
      direction 0.000000 0.000000 1.000000
      length 3.937000
      axis 0.0 0.0 -90.0 xyz
      dof rx rz ry
   end
   begin
      id 16
      name RightShoulder
      direction -1.000000 0.000000 0.000000
      length 6.635956
      axis 0.0 0.0 90.0 xyz
      dof rx ry rz
   end
   begin
      id 17
      name RightArm
      direction -1.000000 0.000000 0.000000
      length 10.274218
      axis 0.0 0.0 90.0 xyz
      dof rx ry rz
   end
   begin
      id 18
      name RightForeArm
      direction -1.000000 0.000000 0.000000
      length 8.522147
      axis 0.0 0.0 90.0 xyz
      dof ry rz rx
   end
   begin
      id 19
      name RightHand
      direction 0.000000 0.000000 0.000000
      length 0.000000
      axis 0.0 0.0 90.0 xyz
      dof rx ry rz
   end
   begin
      id 20
      name RightHand_dum1
      direction 0.000000 0.000000 0.000000
      length 0.000000
      axis 0.0 0.0 90.0 xyz
   end
   begin
      id 21
      name RightHand_dum2
      direction -1.000000 0.000000 0.000000
      length 3.937000
      axis 0.0 0.0 90.0 xyz
   end
   begin
      id 22
      name RightHandThumb1
      direction 0.000000 0.000000 1.000000
      length 3.937000
      axis 0.0 0.0 90.0 xyz
      dof rx rz ry
   end
   begin
      id 23
      name LeftUpLeg
      direction 0.000000 -1.000000 0.000000
      length 16.490845
      axis 0.0 0.0 0.0 xyz
      dof rx ry rz
   end
   begin
      id 24
      name LeftLeg
      direction 0.000000 -1.000000 0.000000
      length 14.556576
      axis 0.0 0.0 0.0 xyz
      dof rx ry rz
   end
   begin
      id 25
      name LeftFoot
      direction 0.000000 -0.258819 0.965926
      length 4.831116
      axis 15.0 0.0 0.0 xyz
      dof rx ry rz
   end
   begin
      id 26
      name LeftToeBase
      direction 0.000000 0.000000 1.000000
      length 2.952750
      axis 0.0 0.0 0.0 xyz
      dof rx ry rz
   end
   begin
      id 27
      name RightUpLeg
      direction 0.000000 -1.000000 0.000000
      length 16.490845
      axis 0.0 0.0 0.0 xyz
      dof rx ry rz
   end
   begin
      id 28
      name RightLeg
      direction 0.000000 -1.000000 0.000000
      length 14.556576
      axis 0.0 0.0 0.0 xyz
      dof rx ry rz
   end
   begin
      id 29
      name RightFoot
      direction 0.000000 -0.258819 0.965926
      length 4.831116
      axis 15.0 0.0 0.0 xyz
      dof rx ry rz
   end
   begin
      id 30
      name RightToeBase
      direction 0.000000 0.000000 1.000000
      length 2.952750
      axis 0.0 0.0 0.0 xyz
      dof rx ry rz
   end
:hierarchy
   begin
      root Spine_dum LeftUpLeg_dum RightUpLeg_dum
      Spine_dum Spine
      LeftUpLeg_dum LeftUpLeg
      RightUpLeg_dum RightUpLeg
      Spine Spine_dum1 Spine_dum2 Spine_dum3
      Spine_dum1 Head
      Spine_dum2 LeftShoulder
      Spine_dum3 RightShoulder
      LeftShoulder LeftArm
      LeftArm LeftForeArm
      LeftForeArm LeftHand
      LeftHand LeftHand_dum1 LeftHand_dum2
      LeftHand_dum1 LeftHandThumb1
      RightShoulder RightArm
      RightArm RightForeArm
      RightForeArm RightHand
      RightHand RightHand_dum1 RightHand_dum2
      RightHand_dum1 RightHandThumb1
      LeftUpLeg LeftLeg
      LeftLeg LeftFoot
      LeftFoot LeftToeBase
      RightUpLeg RightLeg
      RightLeg RightFoot
      RightFoot RightToeBase
   end

# File created by Blade
# Date/Time:  Wed Sep 24 20:15:16 2014
# Frame Rate: 120.000 fps
#------------------------------------------------------
:FULLY-SPECIFIED
:DEGREES
588
root -6.381093 32.773508 -5.455396 16.564170 6.727483 -1.645041
Spine -21.333886 6.260448 1.075231
Head -5.185159 -12.358185 8.645279
LeftShoulder -6.261791 17.996643 9.730348
LeftArm 26.314781 41.644024 -69.089875
LeftForeArm 0.794825 0.000000 22.769329
LeftHand -22.129587 0.000000 -7.880604
LeftHandThumb1 -26.253704 0.000000 33.147579
RightShoulder -14.700934 12.515902 -11.443840
RightArm -17.085925 3.803925 82.599294
RightForeArm 20.224451 -0.000000 94.273111
RightHand -2.892575 -0.000000 -3.217145
RightHandThumb1 -24.326973 -0.000000 -32.862282
LeftUpLeg -15.137745 4.636111 5.034401
LeftLeg 0.914902 -0.000000 -0.000000
LeftFoot -10.574117 5.854083 -18.189738
LeftToeBase 9.701962 -0.000000 -0.000000
RightUpLeg -14.359897 -8.361345 0.111275
RightLeg 3.279692 -0.000000 -0.000000
RightFoot -8.595108 -4.488545 -13.360153
RightToeBase 0.472986 -0.000000 -0.000000
589
root -6.379344 32.774047 -5.452046 16.576131 6.759743 -1.632149
Spine -21.357890 6.197479 1.079804
Head -5.163678 -12.350015 8.595175
LeftShoulder -6.260441 18.006282 9.715703
LeftArm 26.291302 41.665211 -69.061908
LeftForeArm 0.766833 -0.000000 22.779933
LeftHand -22.095434 -0.000000 -7.894212
LeftHandThumb1 -26.253704 0.000000 33.147579
RightShoulder -14.698335 12.529058 -11.464805
RightArm -17.509870 5.027081 82.112100
RightForeArm 19.767824 -0.000000 94.549948
RightHand -2.870094 -0.000000 -3.578914
RightHandThumb1 -24.326973 -0.000000 -32.862282
LeftUpLeg -15.147946 4.633188 5.021188
LeftLeg 0.914139 -0.000000 -0.000000
LeftFoot -10.551593 5.826609 -18.167801
LeftToeBase 9.653479 -0.000000 -0.000000
RightUpLeg -14.359327 -8.378203 0.100556
RightLeg 3.278008 -0.000000 -0.000000
RightFoot -8.598420 -4.495678 -13.326418
RightToeBase 0.497860 -0.000000 -0.000000
590
root -6.377284 32.774028 -5.448198 16.576159 6.765861 -1.620840
Spine -21.365996 6.167464 1.075151
Head -5.147978 -12.334283 8.542874
LeftShoulder -6.268828 18.038287 9.692912
LeftArm 26.338299 41.701290 -68.974423
LeftForeArm 0.726956 0.000000 22.778962
LeftHand -22.096726 -0.000000 -7.908925
LeftHandThumb1 -26.253704 0.000000 33.147579
RightShoulder -14.693119 12.551080 -11.488698
RightArm -17.973872 6.325830 81.627672
RightForeArm 19.131934 -0.000000 94.866876
RightHand -2.889333 -0.000000 -3.955141
RightHandThumb1 -24.326973 -0.000000 -32.862282
LeftUpLeg -15.139410 4.638503 5.008291
LeftLeg 0.908858 -0.000000 -0.000000
LeftFoot -10.531776 5.783619 -18.311640
LeftToeBase 9.648687 -0.000000 -0.000000
RightUpLeg -14.348514 -8.369039 0.084653
RightLeg 3.279028 -0.000000 -0.000000
RightFoot -8.590759 -4.541964 -13.376333
RightToeBase 0.506702 -0.000000 -0.000000
591
root -6.374488 32.774034 -5.444155 16.577886 6.781460 -1.604702
Spine -21.376210 6.135990 1.069215
Head -5.126271 -12.321797 8.479633
LeftShoulder -6.274244 18.035100 9.680420
LeftArm 26.378285 41.767443 -68.904086
LeftForeArm 0.676312 -0.000000 22.728165
LeftHand -22.087956 0.000000 -7.933229
LeftHandThumb1 -26.253704 0.000000 33.147579
RightShoulder -14.679665 12.550857 -11.504100
RightArm -18.460513 7.580755 81.113464
RightForeArm 18.521859 -0.000000 95.212575
RightHand -2.965548 -0.000000 -4.517561
RightHandThumb1 -24.326973 -0.000000 -32.862282
LeftUpLeg -15.129688 4.620834 4.991379
LeftLeg 0.896041 -0.000000 -0.000000
LeftFoot -10.574927 5.799572 -18.278963
LeftToeBase 9.850588 -0.000000 -0.000000
RightUpLeg -14.337615 -8.383081 0.065905
RightLeg 3.278223 -0.000000 -0.000000
RightFoot -8.599603 -4.552255 -13.391046
RightToeBase 0.487877 -0.000000 -0.000000
592
root -6.370104 32.773867 -5.438303 16.572628 6.843379 -1.598872
Spine -21.384143 6.076137 1.104462
Head -5.111313 -12.281681 8.402465
LeftShoulder -6.279709 18.031639 9.653683
LeftArm 26.418539 41.851896 -68.841044
LeftForeArm 0.659677 -0.000000 22.669922
LeftHand -22.085365 0.000000 -7.928652
LeftHandThumb1 -26.253704 0.000000 33.147579
RightShoulder -14.698608 12.551668 -11.532107
RightArm -18.958603 8.788353 80.565286
RightForeArm 18.117793 -0.000000 95.533605
RightHand -3.024813 -0.000000 -5.178981
RightHandThumb1 -24.326973 -0.000000 -32.862282
LeftUpLeg -15.124979 4.571933 4.991281
LeftLeg 0.899181 -0.000000 -0.000000
LeftFoot -10.550253 5.799831 -18.163575
LeftToeBase 9.703409 -0.000000 -0.000000
RightUpLeg -14.307403 -8.444028 0.068055
RightLeg 3.263254 -0.000000 -0.000000
RightFoot -8.598963 -4.550420 -13.361887
RightToeBase 0.460834 -0.000000 -0.000000
593
root -6.369203 32.773176 -5.433202 16.564311 6.872568 -1.595167
Spine -21.380739 6.037427 1.108719
Head -5.099477 -12.248519 8.375513
LeftShoulder -6.295509 18.021365 9.658610
LeftArm 26.452816 41.909048 -68.804337
LeftForeArm 0.640043 -0.000000 22.606797
LeftHand -22.076156 -0.000000 -7.840620
LeftHandThumb1 -26.253704 0.000000 33.147579
RightShoulder -14.706630 12.549532 -11.518229
RightArm -19.463559 10.008819 80.002308
RightForeArm 18.110453 -0.000000 95.825407
RightHand -2.985536 -0.000000 -5.851961
RightHandThumb1 -24.326973 -0.000000 -32.862282
LeftUpLeg -15.112585 4.559483 4.992404
LeftLeg 0.899434 -0.000000 -0.000000
LeftFoot -10.538821 5.777893 -18.126978
LeftToeBase 9.680681 -0.000000 -0.000000
RightUpLeg -14.286572 -8.466312 0.066722
RightLeg 3.266573 -0.000000 -0.000000
RightFoot -8.607463 -4.556267 -13.375497
RightToeBase 0.421211 -0.000000 -0.000000
594
root -6.367960 32.772616 -5.430395 16.566582 6.867524 -1.586856
Spine -21.380997 6.008340 1.095894
Head -5.097127 -12.181436 8.371683
LeftShoulder -6.313319 18.003841 9.669482
LeftArm 26.448543 41.941140 -68.796757
LeftForeArm 0.637060 -0.000000 22.559285
LeftHand -22.130791 -0.000000 -7.851604
LeftHandThumb1 -26.253704 0.000000 33.147579
RightShoulder -14.699348 12.571315 -11.497707
RightArm -19.987110 11.147723 79.410267
RightForeArm 18.403914 -0.000000 96.048365
RightHand -3.046215 -0.000000 -6.074852
RightHandThumb1 -24.326973 -0.000000 -32.862282
LeftUpLeg -15.105658 4.560870 4.983704
LeftLeg 0.896273 -0.000000 -0.000000
LeftFoot -10.547563 5.764077 -18.171694
LeftToeBase 9.702325 -0.000000 -0.000000
RightUpLeg -14.290384 -8.428744 0.048359
RightLeg 3.287087 -0.000000 -0.000000
RightFoot -8.631765 -4.601904 -13.370744
RightToeBase 0.471070 -0.000000 -0.000000
595
root -6.365751 32.772351 -5.425068 16.564267 6.880320 -1.578335
Spine -21.383870 5.948522 1.107648
Head -5.082586 -12.108656 8.339748
LeftShoulder -6.345466 18.018164 9.660712
LeftArm 26.414447 41.917346 -68.831570
LeftForeArm 0.704665 -0.000000 22.532615
LeftHand -22.143626 -0.000000 -7.884882
LeftHandThumb1 -26.253704 0.000000 33.147579
RightShoulder -14.696581 12.607397 -11.484058
RightArm -20.533137 12.323166 78.795192
RightForeArm 19.028237 -0.000000 96.212417
RightHand -2.967625 -0.000000 -6.266571
RightHandThumb1 -24.326973 -0.000000 -32.862282
LeftUpLeg -15.096438 4.552055 4.973210
LeftLeg 0.898515 -0.000000 -0.000000
LeftFoot -10.564039 5.767028 -18.178161
LeftToeBase 9.694824 -0.000000 -0.000000
RightUpLeg -14.274035 -8.417339 0.031318
RightLeg 3.287350 -0.000000 -0.000000
RightFoot -8.612715 -4.633666 -13.417176
RightToeBase 0.375552 -0.000000 -0.000000
596
root -6.362589 32.771562 -5.416646 16.520755 6.918084 -1.575331
Spine -21.340733 5.859942 1.160004
Head -5.046136 -12.011932 8.262751
LeftShoulder -6.371455 18.058758 9.615548
LeftArm 26.386958 41.853274 -68.846027
LeftForeArm 0.716126 -0.000000 22.526313
LeftHand -22.182965 -0.000000 -7.901680
LeftHandThumb1 -26.253704 0.000000 33.147579
RightShoulder -14.699628 12.618205 -11.465732
RightArm -20.993317 13.501745 78.230692
RightForeArm 19.482062 -0.000000 96.341365
RightHand -2.832363 -0.000000 -6.453015
RightHandThumb1 -24.326973 -0.000000 -32.862282
LeftUpLeg -15.041711 4.531697 4.973023
LeftLeg 0.892383 -0.000000 -0.000000
LeftFoot -10.558765 5.763122 -18.115288
LeftToeBase 9.670600 -0.000000 -0.000000
RightUpLeg -14.205378 -8.465467 0.027564
RightLeg 3.275156 -0.000000 -0.000000
RightFoot -8.648388 -4.608560 -13.384086
RightToeBase 0.463522 -0.000000 -0.000000
597
root -6.361363 32.771442 -5.411027 16.516108 6.917298 -1.576658
Spine -21.346862 5.806880 1.181185
Head -5.000614 -11.923986 8.218672
LeftShoulder -6.391939 18.103486 9.603140
LeftArm 26.336962 41.786928 -68.890117
LeftForeArm 0.692561 -0.000000 22.535335
LeftHand -22.214798 -0.000000 -7.860272
LeftHandThumb1 -26.253704 0.000000 33.147579
RightShoulder -14.710304 12.646821 -11.444644
RightArm -21.491447 14.575507 77.609222
RightForeArm 20.019546 -0.000000 96.454368
RightHand -2.633365 -0.000000 -6.724413
RightHandThumb1 -24.326973 -0.000000 -32.862282
LeftUpLeg -15.022797 4.523193 4.978117
LeftLeg 0.882320 -0.000000 -0.000000
LeftFoot -10.568016 5.768060 -18.114954
LeftToeBase 9.651862 -0.000000 -0.000000
RightUpLeg -14.189110 -8.445622 0.020355
RightLeg 3.274717 -0.000000 -0.000000
RightFoot -8.648600 -4.625542 -13.363679
RightToeBase 0.392578 -0.000000 -0.000000
